<?xml version="1.0" encoding="UTF-8" standalone="no"?>
<!-- Created with Inkscape (http://www.inkscape.org/) -->

<svg
   version="1.1"
   id="svg1"
   width="305.6785"
   height="373.76883"
   viewBox="0 0 305.6785 373.76883"
   xmlns="http://www.w3.org/2000/svg"
   xmlns:svg="http://www.w3.org/2000/svg">
  <defs
     id="defs1" />
  <g
     id="g1"
     transform="translate(35.324864,655.13262)">
    <path
       d="m 73.675136,-282.58602 c -34.65126,-4.98187 -64.8835498,-18.35691 -83.2098698,-36.8128 -20.8583502,-21.00583 -23.5679702,-46.40717 -6.8374002,-64.09728 10.2795402,-10.8691 26.5432,-15.79939 31.29696,-9.48759 4.27742,5.67932 1.84825,10.65439 -6.5669498,13.44947 -3.06194,1.01701 -6.97005,3.45399 -9.83174,6.13076 -20.2079402,18.90216 1.21330997,50.84551 44.4306098,66.25487 47.05149,16.77648 101.339654,9.38503 130.817174,-17.81103 19.72353,-18.19699 27.92799,-44.48771 21.22714,-68.02113 -1.18589,-4.16484 -1.88478,-5.22577 -3.17338,-4.81726 -14.49071,4.59374 -24.19378,5.39623 -38.99751,3.22525 -35.31742,-5.17933 -62.105904,-25.72028 -66.093084,-50.67906 -2.94036,-18.4059 6.36659,-35.1318 24.438054,-43.91866 13.10849,-6.37372 18.67183,-7.48272 37,-7.37563 19.01417,0.1111 26.93723,1.8329 41.11142,8.9341 22.20535,11.12477 34.58841,28.48971 34.63436,48.56822 0.0271,11.8503 -5.24134,24.62529 -12.49753,30.30411 l -3.09289,2.42055 2.42232,7.83977 c 2.1155,6.84675 2.41854,9.73971 2.39248,22.83976 -0.0324,16.29979 -1.84557,25.33392 -7.22519,36 -11.53004,22.8604 -34.51463,41.62087 -62.29162,50.84363 -19.80072,6.57441 -49.240524,9.18786 -69.953354,6.20995 z M 181.74364,-410.74991 c 16.51741,-4.89702 26.06773,-15.60911 26.19749,-29.38432 0.14948,-15.86903 -17.00884,-32.51784 -39.76599,-38.58516 -9.58334,-2.55503 -23.6047,-2.94379 -33.47341,-0.92809 -14.89749,3.04283 -24.0186,8.23663 -28.82614,16.41436 -2.25997,3.84425 -2.69243,5.73532 -2.65129,11.59352 0.1298,18.48254 15.67325,32.90861 43.50855,40.38084 9.6209,2.58267 27.15625,2.83753 35.01079,0.50885 z m -10.81669,-19.92587 c -4.99113,-3.49592 -5.42917,-16.37737 -0.71716,-21.08938 3.35537,-3.35537 9.27261,-3.27296 12.5111,0.17426 1.92393,2.04793 2.46936,3.87567 2.776,9.30243 0.34797,6.15831 0.14441,7.03564 -2.30896,9.9513 -2.131,2.53255 -3.45772,3.19757 -6.37918,3.19757 -2.02873,0 -4.67554,-0.69128 -5.8818,-1.53618 z m -39.00752,-3.96321 c -5.08977,-3.65991 -6.88158,-13.64626 -3.78028,-21.06872 2.78873,-6.67436 11.65129,-7.88745 15.73412,-2.15365 4.03485,5.66643 3.41319,18.04857 -1.11175,22.14358 -2.73416,2.47438 -8.15164,3.01342 -10.84209,1.07879 z m -43.218854,111.52483 c -2.71273,-2.71273 -3.48469,-6.5025 -2.03665,-9.99839 0.94219,-2.27464 2.37242,-3.30706 6.36328,-4.59335 11.686464,-3.76665 17.604864,-9.03785 20.210294,-18.0002 1.43165,-4.9247 1.43427,-5.93328 0.028,-10.77067 -1.93707,-6.66327 -7.24941,-12.84244 -16.290114,-18.9482 -8.46191,-5.71487 -15.15671,-8.74633 -42.45892,-19.22575 -35.93106,-13.79145 -53.1936798,-23.87389 -65.64488,-38.3407 -11.61717,-13.49776 -16.46063,-27.54289 -16.6039,-48.14818 -0.13174,-18.94751 3.76094,-34.57299 12.88651,-51.72729 2.48652,-4.67417 4.52094,-8.93865 4.52094,-9.47663 0,-0.53798 -1.4625,-2.69158 -3.25,-4.78576 -5.6353,-6.60216 -12.87304,-19.61758 -15.87212,-28.5424 -4.23265,-12.59575 -5.87788,-23.78131 -5.87788,-39.96242 0,-29.47078 2.21448,-32.06807 23.50841,-27.57218 15.5600002,3.28527 30.74313,10.0347 43.19207,19.2004 6.38848,4.70361 17.51765,15.44402 21.54772,20.79504 l 2.58234,3.42875 7.33473,-2.1098 c 11.93404,-3.43276 19.62674,-4.51514 32.33473,-4.54957 10.351084,-0.028 13.762694,0.41798 24.827934,3.24592 l 12.82793,3.27843 1.63703,-2.36124 c 6.0146,-8.67541 20.73212,-21.2541 32.38299,-27.67692 14.27644,-7.87023 35.70479,-15.15839 44.62378,-15.17732 4.76018,-0.0101 8.7958,2.43977 10.23387,6.2126 0.74135,1.94496 1.43248,10.20101 1.69773,20.28039 0.52994,20.1379 -1.28664,31.34475 -7.57734,46.7463 -4.78855,11.72385 -10.37224,20.04901 -20.12348,30.0037 -6.64303,6.78163 -8.03457,7.75 -11.13671,7.75 -4.5534,0 -7.89373,-3.35351 -7.89373,-7.92488 0,-2.7144 1.27927,-4.65935 7.25,-11.02259 15.77321,-16.81012 23.78184,-38.19426 23.73469,-63.37489 -0.0211,-11.29183 -0.29049,-11.58669 -8.59462,-9.40869 -21.30606,5.58815 -41.28505,19.39703 -55.67522,38.48105 -5.55199,7.36297 -6.40321,7.53312 -16.93882,3.38582 -11.42645,-4.49799 -17.22486,-5.52313 -31.276034,-5.52954 -14.21101,-0.006 -20.43961,1.01614 -33.85654,5.55858 -4.8711,1.64916 -9.83492,2.75292 -11.03071,2.45279 -1.19579,-0.30012 -4.29761,-3.43766 -6.89292,-6.9723 -6.62643,-9.02474 -20.03137,-21.28539 -29.43805,-26.92511 -9.3744898,-5.62041 -24.18027,-10.94439 -29.2492,-10.51764 l -3.53258,0.2974 0.0773,12 c 0.16205,25.1567 7.64187,44.90539 22.6224102,59.7291 4.588,4.53997 6.8002898,7.49877 6.8002898,9.09496 0,1.30123 -1.8730598,5.24813 -4.1623498,8.7709 -6.47517003,9.96401 -12.57944,23.66197 -14.91317,33.4651 -1.7812802,7.4825 -2.0605902,11.14078 -1.7133102,22.43994 0.3716702,12.09231 0.7211802,14.25183 3.3518802,20.7102 3.6759,9.02432 9.00373,16.35922 16.52639,22.75212 11.0555898,9.39524 17.3352698,12.52283 54.4105598,27.09908 38.666774,15.20195 55.961444,26.84174 64.631574,43.49885 3.04288,5.846 3.35003,7.22345 3.33127,14.93975 -0.0174,7.14864 -0.4596,9.44719 -2.78156,14.45781 -3.76408,8.12257 -6.86949,11.94872 -13.89643,17.12166 -6.02713,4.43692 -16.383014,8.42053 -21.890194,8.42053 -1.59206,0 -3.78321,-0.88855 -4.86922,-1.97456 z M 240.90193,-501.3896 c -0.55995,-0.6875 -1.97458,-4.48052 -3.14362,-8.42893 -2.35339,-7.94854 -5.30426,-11.28397 -11.80777,-13.34658 -11.25038,-3.56811 -11.12169,-8.65319 0.31312,-12.37274 6.82773,-2.22095 9.9054,-5.70404 12.01856,-13.60175 1.89867,-7.09611 3.76456,-10 6.42546,-10 2.56585,0 3.74702,1.95554 5.3616,8.87662 2.2992,9.85582 4.12631,11.66799 16.26064,16.12767 5.11942,1.88153 5.43303,7.46728 0.48492,8.63698 -5.75589,1.36067 -11.29653,4.56828 -13.147,7.61113 -1.05852,1.7406 -2.58589,6.06388 -3.39414,9.60728 -0.80826,3.54341 -2.06108,6.81766 -2.78406,7.27613 -1.95508,1.23977 -5.42943,1.0363 -6.58771,-0.38581 z m -92.4433,-8.5 c -5.56376,-6.37842 -5.99299,-22.20475 -0.75347,-27.78196 2.89887,-3.0857 8.59572,-3.33687 12.15648,-0.53598 6.83729,5.37822 6.07054,25.18409 -1.12402,29.0345 -3.03624,1.62495 -8.57324,1.23896 -10.27899,-0.71656 z m -51.559564,-1.71503 c -3.84685,-3.23691 -5.22903,-7.79828 -5.16191,-17.03497 0.0855,-11.76455 3.58244,-17.50993 10.782114,-17.71463 6.71686,-0.19098 10.50121,6.71928 10.37456,18.94401 -0.12452,12.02029 -2.64106,16.81579 -9.39998,17.91261 -2.74659,0.44571 -4.059574,0.0262 -6.594784,-2.10702 z"
       id="path1-3" />
  </g>
</svg>
